<?xml version="1.0" standalone="no"?>
<!DOCTYPE svg PUBLIC "-//W3C//DTD SVG 20010904//EN"
 "http://www.w3.org/TR/2001/REC-SVG-20010904/DTD/svg10.dtd">
<svg version="1.0" xmlns="http://www.w3.org/2000/svg"
 width="2550.000000pt" height="2550.000000pt" viewBox="0 0 2550.000000 2550.000000"
 preserveAspectRatio="xMidYMid meet">
<metadata>
Created by potrace 1.11, written by Peter Selinger 2001-2013
</metadata>
<g transform="translate(0.000000,2550.000000) scale(0.100000,-0.100000)"
fill="#000000" stroke="none">
<path d="M0 12750 l0 -12750 12750 0 12750 0 0 12750 0 12750 -12750 0 -12750
0 0 -12750z m9750 2222 c228 -43 423 -107 612 -201 l133 -66 3 -481 2 -481
-72 71 c-158 155 -389 296 -588 359 -460 146 -942 72 -1337 -206 -242 -170
-452 -454 -548 -740 -57 -171 -69 -255 -69 -477 0 -174 3 -220 21 -302 47
-206 112 -360 230 -537 332 -499 958 -752 1548 -626 269 57 543 205 743 401
l72 71 -2 -481 -3 -481 -133 -66 c-193 -96 -398 -162 -637 -205 -141 -26 -556
-26 -700 -1 -409 72 -786 242 -1080 489 -444 371 -714 854 -801 1428 -36 238
-21 571 38 825 147 635 587 1194 1174 1493 235 118 503 200 764 232 127 15
509 4 630 -18z m3436 17 c448 -62 833 -336 1037 -736 109 -216 150 -386 150
-628 0 -242 -41 -412 -150 -628 -163 -321 -455 -572 -788 -678 -38 -12 -74
-25 -78 -29 -5 -4 219 -402 498 -884 278 -482 508 -883 511 -891 5 -13 -49
-15 -427 -15 l-434 0 -717 1244 c-395 684 -718 1246 -718 1250 0 3 218 6 484
6 551 0 588 4 721 69 148 73 265 208 316 362 35 106 35 282 0 388 -51 154
-168 289 -316 362 -139 68 -148 69 -941 69 l-704 0 0 -1875 0 -1875 -380 0
-380 0 0 2250 0 2250 1119 0 c748 0 1145 -4 1197 -11z m4064 -2239 l0 -2250
-375 0 -375 0 -2 1604 -3 1603 -880 -1525 c-485 -838 -885 -1525 -890 -1525
-6 0 -106 166 -223 369 -206 356 -213 370 -199 394 8 14 452 783 987 1710 535
927 997 1727 1027 1778 l54 92 439 0 440 0 0 -2250z m913 2212 c82 -41 157
-120 188 -200 31 -79 31 -195 0 -275 -32 -81 -113 -166 -193 -203 -56 -26 -74
-29 -158 -29 -84 0 -102 3 -158 29 -80 37 -161 122 -193 203 -31 80 -31 196 0
275 26 67 95 148 158 184 71 42 120 54 210 51 67 -3 92 -9 146 -35z m215
-2774 l2 -1688 -380 0 -380 0 0 1683 c0 926 3 1687 7 1690 4 4 173 6 377 5
l371 -3 3 -1687z"/>
</g>
</svg>
